<?xml version="1.0" ?><!DOCTYPE svg  PUBLIC '-//W3C//DTD SVG 1.1//EN'  'http://www.w3.org/Graphics/SVG/1.1/DTD/svg11.dtd'><svg height="5.4186mm" style="shape-rendering:geometricPrecision; text-rendering:geometricPrecision; image-rendering:optimizeQuality; fill-rule:evenodd; clip-rule:evenodd" version="1.1" viewBox="0 0 542 542" width="5.4186mm" xml:space="preserve" xmlns="http://www.w3.org/2000/svg" xmlns:xlink="http://www.w3.org/1999/xlink"><defs><style type="text/css">
   <![CDATA[
    .fil0 {fill:black;fill-rule:nonzero}
   ]]>
  </style></defs><g id="Layer_x0020_1"><path class="fil0" d="M146 135l44 0c9,-18 21,-42 43,-42l76 0c22,0 34,24 43,42l44 0c29,0 53,24 53,53l0 208c0,29 -24,53 -53,53l-250 0c-29,0 -53,-24 -53,-53l0 -208c0,-29 24,-53 53,-53zm125 81c-42,0 -76,34 -76,76 0,42 34,76 76,76 42,0 76,-34 76,-76 0,-42 -34,-76 -76,-76zm0 -17c51,0 93,41 93,93 0,51 -42,93 -93,93 -52,0 -93,-42 -93,-93 0,-52 41,-93 93,-93zm-125 -47c-20,0 -36,16 -36,36l0 208c0,20 16,36 36,36l250 0c20,0 36,-16 36,-36l0 -208c0,-20 -16,-36 -36,-36l-54 0 -6 -11c-6,-13 -16,-31 -27,-31l-76 0c-12,0 -21,18 -27,31l-6 11 -54 0z"/></g></svg>